<svg version="1.1" xmlns="http://www.w3.org/2000/svg" xmlns:xlink="http://www.w3.org/1999/xlink" x="0px" y="0px" viewBox="0 0 1000 1000" enable-background="new 0 0 1000 1000" xml:space="preserve">
<g><g transform="translate(0.000000,512.000000) scale(0.100000,-0.100000)"><path d="M1910.7,5004.7c-109.3-24.9-256.9-107.4-350.8-193.6c-99.7-92-209-301-226.2-431.3c-5.8-49.8-149.5-1859.5-320.2-4022c-262.6-3364.4-306.7-3976-301-4248.2l5.7-316.3l70.9-145.7c86.3-174.4,197.5-281.8,375.7-366.2l128.4-61.3h3671.2h3671.2l128.4,61.3c70.9,32.6,166.8,95.9,214.7,139.9c107.3,97.8,214.7,306.7,232,444.8c5.7,55.6-5.8,377.7-26.9,717l-36.4,615.4l63.3,126.5c34.5,70.9,69,172.5,76.7,228.1c7.7,69-92,1225-304.8,3502.5l-316.3,3400.9l-57.5,120.8c-78.6,170.6-189.8,281.8-362.3,368.1l-145.7,70.9l-3057.7,3.8C3304.4,5020,1952.9,5014.2,1910.7,5004.7z M8054.9,4696c95.8-28.8,230-145.7,274.1-239.6c19.2-38.3,42.2-139.9,49.8-226.2c7.7-84.4,149.5-1606.5,314.4-3381.7c262.6-2827.6,297.1-3239.8,276.1-3312.7c-26.8-99.7-143.8-237.7-241.6-285.6c-70.9-34.5-203.2-36.4-3753.6-46l-3680.8-9.6l-109.3-51.8c-97.8-44.1-111.2-47.9-111.2-19.2c0,141.9,561.7,7202.4,579,7269.5c26.8,105.4,182.1,268.4,283.7,301C2035.3,4724.8,7951.3,4726.7,8054.9,4696z M8884.9-3551.2c38.3-615.4,34.5-640.3-113.1-787.9c-61.3-61.3-126.5-105.4-176.4-120.8c-115-34.5-7146.8-34.5-7261.8,0c-105.4,30.7-264.6,189.8-295.2,295.2c-28.8,101.6-30.7,649.9-1.9,738.1c13.4,36.4,44.1,92,69,126.5c49.8,67.1,174.4,170.6,187.9,155.3c5.7-3.8-3.8-72.9-21.1-151.4c-21.1-101.6-26.8-205.1-21.1-362.3c9.6-245.4,49.8-402.6,118.9-471.6l46-46h3586.8h3586.8l47.9,49.8c55.6,53.7,55.6,40.3-1.9,343.2c-24.9,130.4-30.7,224.3-21.1,383.4c15.3,276.1,24.9,316.3,76.7,316.3c21.1,1.9,67.1,13.4,97.8,26.8c32.6,13.4,59.4,24.9,61.4,23C8852.4-3035.5,8867.7-3267.4,8884.9-3551.2z M8317.5-3202.3c-19.2-130.4-19.2-437.1,0-565.5l13.4-101.6H4955H1577.1l-13.4,72.9c-30.7,189.8,0,496.5,67.1,644.1l23,49.8h3339.5h3337.6L8317.5-3202.3z"/><path d="M4613.7,3612.9c-7.7-5.8-13.4-230-13.4-494.6c0-266.5-5.8-548.3-11.5-628.8l-13.4-147.6h-628.8c-368.1,0-632.6-7.7-640.3-17.3c-9.6-15.3-65.2-759.2-67.1-878v-44.1h659.5c509.9,0,661.4-5.7,667.1-23c3.8-13.4-1.9-636.5-15.4-1386c-11.5-747.6-19.2-1366.8-13.4-1374.5c3.8-9.6,249.2-15.3,542.5-15.3c293.3,0,538.7,5.7,542.5,15.3c5.8,7.7-1.9,626.9-13.4,1374.5c-13.4,749.6-19.2,1372.6-15.4,1386c5.8,17.3,155.3,23,655.6,23c400.7,0,653.7,7.7,661.4,19.2c13.4,21.1-42.2,876.1-59.4,902.9c-5.8,9.6-278,17.3-638.4,17.3h-628.8l-13.4,116.9c-5.8,65.2-11.5,341.2-11.5,613.5c0,270.3-5.7,506.1-11.5,523.3c-9.6,26.8-69,30.7-465.8,30.7C4830.4,3626.3,4619.5,3620.6,4613.7,3612.9z"/></g></g>
</svg>